<mxfile host="app.diagrams.net" modified="2021-02-18T07:00:12.137Z" agent="5.0 (Windows NT 10.0; Win64; x64) AppleWebKit/537.36 (KHTML, like Gecko) Chrome/88.0.4324.150 Safari/537.36" etag="d1goVlNZDinJOsms1TgU" version="14.1.2" type="github">
  <diagram id="EI7pPr2WNHaQupagVAP9" name="Page-1">
    <mxGraphModel dx="1470" dy="977" grid="1" gridSize="10" guides="1" tooltips="1" connect="1" arrows="1" fold="1" page="1" pageScale="1" pageWidth="3300" pageHeight="4681" math="0" shadow="0">
      <root>
        <mxCell id="0" />
        <mxCell id="1" parent="0" />
        <mxCell id="6y25cxL9GwrQjIX-IhtI-59" value="&amp;nbsp;" style="html=1;" vertex="1" parent="1">
          <mxGeometry x="160" y="110" width="720" height="570" as="geometry" />
        </mxCell>
        <mxCell id="6y25cxL9GwrQjIX-IhtI-1" value="&lt;font style=&quot;font-size: 18px&quot;&gt;asy_ff_2&lt;/font&gt;" style="rounded=0;whiteSpace=wrap;html=1;" vertex="1" parent="1">
          <mxGeometry x="240" y="230" width="120" height="60" as="geometry" />
        </mxCell>
        <mxCell id="6y25cxL9GwrQjIX-IhtI-2" value="&lt;font style=&quot;font-size: 18px&quot;&gt;asy_ff_3&lt;/font&gt;" style="rounded=0;whiteSpace=wrap;html=1;" vertex="1" parent="1">
          <mxGeometry x="240" y="360" width="120" height="60" as="geometry" />
        </mxCell>
        <mxCell id="6y25cxL9GwrQjIX-IhtI-3" value="&lt;font style=&quot;font-size: 36px&quot;&gt;&amp;amp;&lt;/font&gt;" style="rounded=0;whiteSpace=wrap;html=1;" vertex="1" parent="1">
          <mxGeometry x="380" y="290" width="80" height="60" as="geometry" />
        </mxCell>
        <mxCell id="6y25cxL9GwrQjIX-IhtI-4" value="" style="endArrow=classic;html=1;entryX=0.363;entryY=0.067;entryDx=0;entryDy=0;entryPerimeter=0;" edge="1" parent="1" target="6y25cxL9GwrQjIX-IhtI-3">
          <mxGeometry width="50" height="50" relative="1" as="geometry">
            <mxPoint x="360" y="260" as="sourcePoint" />
            <mxPoint x="450" y="200" as="targetPoint" />
            <Array as="points">
              <mxPoint x="410" y="260" />
            </Array>
          </mxGeometry>
        </mxCell>
        <mxCell id="6y25cxL9GwrQjIX-IhtI-5" value="" style="endArrow=classic;html=1;exitX=1;exitY=0.5;exitDx=0;exitDy=0;entryX=0.363;entryY=1.033;entryDx=0;entryDy=0;entryPerimeter=0;" edge="1" parent="1" source="6y25cxL9GwrQjIX-IhtI-2" target="6y25cxL9GwrQjIX-IhtI-3">
          <mxGeometry width="50" height="50" relative="1" as="geometry">
            <mxPoint x="360" y="370" as="sourcePoint" />
            <mxPoint x="417" y="349" as="targetPoint" />
            <Array as="points">
              <mxPoint x="409" y="390" />
            </Array>
          </mxGeometry>
        </mxCell>
        <mxCell id="6y25cxL9GwrQjIX-IhtI-8" value="&lt;font style=&quot;font-size: 18px&quot;&gt;asy_ff_2&lt;/font&gt;" style="rounded=0;whiteSpace=wrap;html=1;" vertex="1" parent="1">
          <mxGeometry x="240" y="470" width="120" height="60" as="geometry" />
        </mxCell>
        <mxCell id="6y25cxL9GwrQjIX-IhtI-9" value="&lt;font style=&quot;font-size: 18px&quot;&gt;asy_ff_3&lt;/font&gt;" style="rounded=0;whiteSpace=wrap;html=1;" vertex="1" parent="1">
          <mxGeometry x="240" y="600" width="120" height="60" as="geometry" />
        </mxCell>
        <mxCell id="6y25cxL9GwrQjIX-IhtI-10" value="&lt;font style=&quot;font-size: 36px&quot;&gt;&amp;amp;&lt;/font&gt;" style="rounded=0;whiteSpace=wrap;html=1;" vertex="1" parent="1">
          <mxGeometry x="380" y="530" width="80" height="60" as="geometry" />
        </mxCell>
        <mxCell id="6y25cxL9GwrQjIX-IhtI-11" value="" style="endArrow=classic;html=1;entryX=0.375;entryY=0.05;entryDx=0;entryDy=0;exitX=1;exitY=0.5;exitDx=0;exitDy=0;entryPerimeter=0;" edge="1" parent="1" target="6y25cxL9GwrQjIX-IhtI-10" source="6y25cxL9GwrQjIX-IhtI-8">
          <mxGeometry width="50" height="50" relative="1" as="geometry">
            <mxPoint x="360" y="490" as="sourcePoint" />
            <mxPoint x="450" y="440" as="targetPoint" />
            <Array as="points">
              <mxPoint x="410" y="500" />
            </Array>
          </mxGeometry>
        </mxCell>
        <mxCell id="6y25cxL9GwrQjIX-IhtI-12" value="" style="endArrow=classic;html=1;exitX=1;exitY=0.5;exitDx=0;exitDy=0;" edge="1" parent="1" source="6y25cxL9GwrQjIX-IhtI-9">
          <mxGeometry width="50" height="50" relative="1" as="geometry">
            <mxPoint x="360" y="610" as="sourcePoint" />
            <mxPoint x="410" y="590" as="targetPoint" />
            <Array as="points">
              <mxPoint x="410" y="630" />
              <mxPoint x="410" y="610" />
              <mxPoint x="410" y="600" />
            </Array>
          </mxGeometry>
        </mxCell>
        <mxCell id="6y25cxL9GwrQjIX-IhtI-13" value="&lt;font style=&quot;font-size: 18px&quot;&gt;Block_1&lt;/font&gt;" style="rounded=0;whiteSpace=wrap;html=1;fillColor=#CCFFFF;" vertex="1" parent="1">
          <mxGeometry x="650" y="230" width="120" height="60" as="geometry" />
        </mxCell>
        <mxCell id="6y25cxL9GwrQjIX-IhtI-14" value="" style="endArrow=classic;html=1;exitX=1;exitY=0.5;exitDx=0;exitDy=0;entryX=0;entryY=0.5;entryDx=0;entryDy=0;" edge="1" parent="1" source="6y25cxL9GwrQjIX-IhtI-13" target="6y25cxL9GwrQjIX-IhtI-32">
          <mxGeometry width="50" height="50" relative="1" as="geometry">
            <mxPoint x="800" y="230" as="sourcePoint" />
            <mxPoint x="850" y="220" as="targetPoint" />
          </mxGeometry>
        </mxCell>
        <mxCell id="6y25cxL9GwrQjIX-IhtI-15" value="&lt;font style=&quot;font-size: 18px&quot;&gt;req1&lt;/font&gt;" style="text;html=1;strokeColor=none;fillColor=none;align=center;verticalAlign=middle;whiteSpace=wrap;rounded=0;" vertex="1" parent="1">
          <mxGeometry x="780" y="240" width="40" height="20" as="geometry" />
        </mxCell>
        <mxCell id="6y25cxL9GwrQjIX-IhtI-16" value="" style="endArrow=classic;html=1;entryX=0;entryY=0.5;entryDx=0;entryDy=0;" edge="1" parent="1" target="6y25cxL9GwrQjIX-IhtI-1">
          <mxGeometry width="50" height="50" relative="1" as="geometry">
            <mxPoint x="110" y="260" as="sourcePoint" />
            <mxPoint x="210" y="250" as="targetPoint" />
          </mxGeometry>
        </mxCell>
        <mxCell id="6y25cxL9GwrQjIX-IhtI-17" value="" style="endArrow=classic;html=1;entryX=0;entryY=0.5;entryDx=0;entryDy=0;" edge="1" parent="1" target="6y25cxL9GwrQjIX-IhtI-2">
          <mxGeometry width="50" height="50" relative="1" as="geometry">
            <mxPoint x="190" y="260" as="sourcePoint" />
            <mxPoint x="210" y="320" as="targetPoint" />
            <Array as="points">
              <mxPoint x="190" y="390" />
            </Array>
          </mxGeometry>
        </mxCell>
        <mxCell id="6y25cxL9GwrQjIX-IhtI-18" value="" style="endArrow=classic;html=1;entryX=0;entryY=0.5;entryDx=0;entryDy=0;" edge="1" parent="1">
          <mxGeometry width="50" height="50" relative="1" as="geometry">
            <mxPoint x="90" y="500" as="sourcePoint" />
            <mxPoint x="240" y="500" as="targetPoint" />
          </mxGeometry>
        </mxCell>
        <mxCell id="6y25cxL9GwrQjIX-IhtI-19" value="" style="endArrow=classic;html=1;entryX=0;entryY=0.5;entryDx=0;entryDy=0;" edge="1" parent="1">
          <mxGeometry width="50" height="50" relative="1" as="geometry">
            <mxPoint x="190" y="500" as="sourcePoint" />
            <mxPoint x="240" y="630" as="targetPoint" />
            <Array as="points">
              <mxPoint x="190" y="630" />
            </Array>
          </mxGeometry>
        </mxCell>
        <mxCell id="6y25cxL9GwrQjIX-IhtI-24" value="" style="endArrow=none;dashed=1;html=1;dashPattern=1 3;strokeWidth=2;" edge="1" parent="1">
          <mxGeometry width="50" height="50" relative="1" as="geometry">
            <mxPoint x="709.58" y="455" as="sourcePoint" />
            <mxPoint x="709.58" y="325" as="targetPoint" />
          </mxGeometry>
        </mxCell>
        <mxCell id="6y25cxL9GwrQjIX-IhtI-25" value="&lt;font style=&quot;font-size: 18px&quot;&gt;Block_4&lt;/font&gt;" style="rounded=0;whiteSpace=wrap;html=1;fillColor=#CCFFFF;" vertex="1" parent="1">
          <mxGeometry x="650" y="490" width="120" height="60" as="geometry" />
        </mxCell>
        <mxCell id="6y25cxL9GwrQjIX-IhtI-26" value="" style="endArrow=classic;html=1;exitX=1;exitY=0.5;exitDx=0;exitDy=0;entryX=0;entryY=0.5;entryDx=0;entryDy=0;" edge="1" parent="1" source="6y25cxL9GwrQjIX-IhtI-25" target="6y25cxL9GwrQjIX-IhtI-34">
          <mxGeometry width="50" height="50" relative="1" as="geometry">
            <mxPoint x="810" y="530" as="sourcePoint" />
            <mxPoint x="859.9999999999998" y="520" as="targetPoint" />
          </mxGeometry>
        </mxCell>
        <mxCell id="6y25cxL9GwrQjIX-IhtI-27" value="&lt;font style=&quot;font-size: 18px&quot;&gt;req4&lt;/font&gt;" style="text;html=1;strokeColor=none;fillColor=none;align=center;verticalAlign=middle;whiteSpace=wrap;rounded=0;" vertex="1" parent="1">
          <mxGeometry x="790" y="500" width="40" height="20" as="geometry" />
        </mxCell>
        <mxCell id="6y25cxL9GwrQjIX-IhtI-28" value="&lt;font style=&quot;font-size: 18px&quot;&gt;Trigger_in&lt;/font&gt;" style="text;html=1;strokeColor=none;fillColor=none;align=center;verticalAlign=middle;whiteSpace=wrap;rounded=0;" vertex="1" parent="1">
          <mxGeometry x="90" y="240" width="40" height="20" as="geometry" />
        </mxCell>
        <mxCell id="6y25cxL9GwrQjIX-IhtI-29" value="&lt;font style=&quot;font-size: 18px&quot;&gt;ACK&lt;/font&gt;" style="text;html=1;strokeColor=none;fillColor=none;align=center;verticalAlign=middle;whiteSpace=wrap;rounded=0;" vertex="1" parent="1">
          <mxGeometry x="100" y="480" width="40" height="20" as="geometry" />
        </mxCell>
        <mxCell id="6y25cxL9GwrQjIX-IhtI-32" value="&lt;b&gt;&lt;font style=&quot;font-size: 24px&quot;&gt;CORE 1&lt;/font&gt;&lt;/b&gt;" style="rounded=0;whiteSpace=wrap;html=1;" vertex="1" parent="1">
          <mxGeometry x="910" y="230" width="120" height="60" as="geometry" />
        </mxCell>
        <mxCell id="6y25cxL9GwrQjIX-IhtI-33" value="" style="endArrow=none;dashed=1;html=1;dashPattern=1 3;strokeWidth=2;" edge="1" parent="1">
          <mxGeometry width="50" height="50" relative="1" as="geometry">
            <mxPoint x="960" y="465" as="sourcePoint" />
            <mxPoint x="960" y="315" as="targetPoint" />
          </mxGeometry>
        </mxCell>
        <mxCell id="6y25cxL9GwrQjIX-IhtI-34" value="&lt;font style=&quot;font-size: 24px&quot;&gt;&lt;b&gt;CORE 4&lt;/b&gt;&lt;/font&gt;" style="rounded=0;whiteSpace=wrap;html=1;" vertex="1" parent="1">
          <mxGeometry x="910" y="490" width="120" height="60" as="geometry" />
        </mxCell>
        <mxCell id="6y25cxL9GwrQjIX-IhtI-41" value="&lt;font style=&quot;font-size: 18px&quot;&gt;Configuration&lt;/font&gt;" style="rounded=0;whiteSpace=wrap;html=1;fillColor=#FFE599;" vertex="1" parent="1">
          <mxGeometry x="650" y="140" width="120" height="60" as="geometry" />
        </mxCell>
        <mxCell id="6y25cxL9GwrQjIX-IhtI-42" value="" style="endArrow=classic;html=1;exitX=1;exitY=0.5;exitDx=0;exitDy=0;entryX=0;entryY=0.5;entryDx=0;entryDy=0;" edge="1" parent="1" source="6y25cxL9GwrQjIX-IhtI-3" target="6y25cxL9GwrQjIX-IhtI-41">
          <mxGeometry width="50" height="50" relative="1" as="geometry">
            <mxPoint x="480" y="320" as="sourcePoint" />
            <mxPoint x="509" y="170" as="targetPoint" />
            <Array as="points">
              <mxPoint x="509" y="320" />
              <mxPoint x="509" y="170" />
            </Array>
          </mxGeometry>
        </mxCell>
        <mxCell id="6y25cxL9GwrQjIX-IhtI-44" value="" style="endArrow=classic;html=1;entryX=0;entryY=0.25;entryDx=0;entryDy=0;" edge="1" parent="1" target="6y25cxL9GwrQjIX-IhtI-41">
          <mxGeometry width="50" height="50" relative="1" as="geometry">
            <mxPoint x="120" y="155" as="sourcePoint" />
            <mxPoint x="410" y="150" as="targetPoint" />
          </mxGeometry>
        </mxCell>
        <mxCell id="6y25cxL9GwrQjIX-IhtI-45" value="&lt;font style=&quot;font-size: 18px&quot;&gt;Mon_in&lt;/font&gt;" style="text;html=1;strokeColor=none;fillColor=none;align=center;verticalAlign=middle;whiteSpace=wrap;rounded=0;" vertex="1" parent="1">
          <mxGeometry x="90" y="130" width="40" height="20" as="geometry" />
        </mxCell>
        <mxCell id="6y25cxL9GwrQjIX-IhtI-48" value="" style="endArrow=classic;html=1;exitX=0.5;exitY=1;exitDx=0;exitDy=0;" edge="1" parent="1" source="6y25cxL9GwrQjIX-IhtI-34">
          <mxGeometry width="50" height="50" relative="1" as="geometry">
            <mxPoint x="670" y="720" as="sourcePoint" />
            <mxPoint x="110" y="500" as="targetPoint" />
            <Array as="points">
              <mxPoint x="970" y="690" />
              <mxPoint x="110" y="690" />
            </Array>
          </mxGeometry>
        </mxCell>
        <mxCell id="6y25cxL9GwrQjIX-IhtI-49" value="&lt;font style=&quot;font-size: 18px&quot;&gt;ACK&lt;/font&gt;" style="text;html=1;strokeColor=none;fillColor=none;align=center;verticalAlign=middle;whiteSpace=wrap;rounded=0;" vertex="1" parent="1">
          <mxGeometry x="930" y="580" width="40" height="20" as="geometry" />
        </mxCell>
        <mxCell id="6y25cxL9GwrQjIX-IhtI-51" value="&lt;font style=&quot;font-size: 24px&quot;&gt;&lt;b&gt;APB_BUS&lt;/b&gt;&lt;/font&gt;" style="shape=step;perimeter=stepPerimeter;whiteSpace=wrap;html=1;fixedSize=1;fillColor=#A9C4EB;" vertex="1" parent="1">
          <mxGeometry x="130" y="40" width="790" height="50" as="geometry" />
        </mxCell>
        <mxCell id="6y25cxL9GwrQjIX-IhtI-52" value="" style="endArrow=classic;html=1;entryX=0.25;entryY=0;entryDx=0;entryDy=0;" edge="1" parent="1" target="6y25cxL9GwrQjIX-IhtI-41">
          <mxGeometry width="50" height="50" relative="1" as="geometry">
            <mxPoint x="680" y="91" as="sourcePoint" />
            <mxPoint x="530" y="90" as="targetPoint" />
          </mxGeometry>
        </mxCell>
        <mxCell id="6y25cxL9GwrQjIX-IhtI-53" value="" style="endArrow=classic;html=1;exitX=0;exitY=0.75;exitDx=0;exitDy=0;entryX=0;entryY=0.25;entryDx=0;entryDy=0;" edge="1" parent="1" source="6y25cxL9GwrQjIX-IhtI-41" target="6y25cxL9GwrQjIX-IhtI-25">
          <mxGeometry width="50" height="50" relative="1" as="geometry">
            <mxPoint x="640" y="300" as="sourcePoint" />
            <mxPoint x="630" y="510" as="targetPoint" />
            <Array as="points">
              <mxPoint x="630" y="185" />
              <mxPoint x="630" y="505" />
            </Array>
          </mxGeometry>
        </mxCell>
        <mxCell id="6y25cxL9GwrQjIX-IhtI-54" value="" style="endArrow=classic;html=1;entryX=0;entryY=0.75;entryDx=0;entryDy=0;" edge="1" parent="1" target="6y25cxL9GwrQjIX-IhtI-25">
          <mxGeometry width="50" height="50" relative="1" as="geometry">
            <mxPoint x="460" y="560" as="sourcePoint" />
            <mxPoint x="570" y="560" as="targetPoint" />
            <Array as="points">
              <mxPoint x="540" y="560" />
              <mxPoint x="540" y="535" />
            </Array>
          </mxGeometry>
        </mxCell>
        <mxCell id="6y25cxL9GwrQjIX-IhtI-55" value="" style="endArrow=classic;html=1;entryX=0;entryY=0.75;entryDx=0;entryDy=0;" edge="1" parent="1" target="6y25cxL9GwrQjIX-IhtI-13">
          <mxGeometry width="50" height="50" relative="1" as="geometry">
            <mxPoint x="540" y="550" as="sourcePoint" />
            <mxPoint x="590" y="485" as="targetPoint" />
            <Array as="points">
              <mxPoint x="540" y="275" />
            </Array>
          </mxGeometry>
        </mxCell>
        <mxCell id="6y25cxL9GwrQjIX-IhtI-56" value="" style="endArrow=classic;html=1;entryX=0.024;entryY=0.347;entryDx=0;entryDy=0;entryPerimeter=0;" edge="1" parent="1" target="6y25cxL9GwrQjIX-IhtI-13">
          <mxGeometry width="50" height="50" relative="1" as="geometry">
            <mxPoint x="630" y="251" as="sourcePoint" />
            <mxPoint x="620" y="210" as="targetPoint" />
          </mxGeometry>
        </mxCell>
        <mxCell id="6y25cxL9GwrQjIX-IhtI-61" value="&lt;b&gt;&lt;font style=&quot;font-size: 18px&quot;&gt;BREAK_MATRIX&lt;/font&gt;&lt;/b&gt;" style="text;html=1;strokeColor=none;fillColor=none;align=center;verticalAlign=middle;whiteSpace=wrap;rounded=0;" vertex="1" parent="1">
          <mxGeometry x="230" y="120" width="40" height="20" as="geometry" />
        </mxCell>
      </root>
    </mxGraphModel>
  </diagram>
</mxfile>
